G75*
%MOIN*%
%OFA0B0*%
%FSLAX25Y25*%
%IPPOS*%
%LPD*%
%AMOC8*
5,1,8,0,0,1.08239X$1,22.5*
%
%ADD10C,0.00400*%
%ADD11C,0.00300*%
%ADD12C,0.00800*%
%ADD13C,0.00100*%
%ADD14C,0.00600*%
%ADD15C,0.00500*%
%ADD16R,0.00787X0.00787*%
%ADD17R,0.02559X0.05512*%
%ADD18C,0.02400*%
%ADD19C,0.01761*%
D10*
X0025837Y0076321D02*
X0025837Y0081526D01*
X0029307Y0081526D01*
X0030994Y0080658D02*
X0030994Y0079791D01*
X0031861Y0078923D01*
X0033596Y0078923D01*
X0034463Y0078056D01*
X0034463Y0077189D01*
X0033596Y0076321D01*
X0031861Y0076321D01*
X0030994Y0077189D01*
X0029307Y0076321D02*
X0025837Y0076321D01*
X0025837Y0078923D02*
X0027572Y0078923D01*
X0030994Y0080658D02*
X0031861Y0081526D01*
X0033596Y0081526D01*
X0034463Y0080658D01*
X0036150Y0081526D02*
X0036150Y0076321D01*
X0036150Y0078056D02*
X0038752Y0078056D01*
X0039620Y0078923D01*
X0039620Y0080658D01*
X0038752Y0081526D01*
X0036150Y0081526D01*
X0046463Y0078923D02*
X0049932Y0078923D01*
X0056776Y0079791D02*
X0058510Y0081526D01*
X0058510Y0076321D01*
X0056776Y0076321D02*
X0060245Y0076321D01*
X0061932Y0076321D02*
X0065402Y0079791D01*
X0065402Y0080658D01*
X0064534Y0081526D01*
X0062799Y0081526D01*
X0061932Y0080658D01*
X0061932Y0076321D02*
X0065402Y0076321D01*
X0067088Y0076321D02*
X0070558Y0076321D01*
X0068823Y0078923D02*
X0067088Y0078923D01*
X0067088Y0076321D02*
X0067088Y0081526D01*
X0070558Y0081526D01*
X0069043Y0033888D02*
X0069043Y0029551D01*
X0069910Y0028683D01*
X0071645Y0028683D01*
X0072513Y0029551D01*
X0072513Y0033888D01*
X0074199Y0032153D02*
X0075934Y0033888D01*
X0075934Y0028683D01*
X0074199Y0028683D02*
X0077669Y0028683D01*
X0077140Y0024817D02*
X0077140Y0020213D01*
X0075605Y0020213D02*
X0078675Y0020213D01*
X0080209Y0020213D02*
X0083279Y0023282D01*
X0083279Y0024049D01*
X0082511Y0024817D01*
X0080977Y0024817D01*
X0080209Y0024049D01*
X0080209Y0020213D02*
X0083279Y0020213D01*
X0082511Y0011817D02*
X0080977Y0011817D01*
X0080209Y0011049D01*
X0080209Y0007980D01*
X0083279Y0011049D01*
X0083279Y0007980D01*
X0082511Y0007213D01*
X0080977Y0007213D01*
X0080209Y0007980D01*
X0078675Y0011049D02*
X0075605Y0007980D01*
X0075605Y0007213D01*
X0073304Y0007213D02*
X0073304Y0011817D01*
X0071002Y0009515D01*
X0074071Y0009515D01*
X0075605Y0011817D02*
X0078675Y0011817D01*
X0078675Y0011049D01*
X0082511Y0011817D02*
X0083279Y0011049D01*
X0084813Y0011817D02*
X0084813Y0007213D01*
X0084813Y0008747D02*
X0087115Y0008747D01*
X0087883Y0009515D01*
X0087883Y0011049D01*
X0087115Y0011817D01*
X0084813Y0011817D01*
X0086348Y0008747D02*
X0087883Y0007213D01*
X0075605Y0023282D02*
X0077140Y0024817D01*
X0074071Y0024049D02*
X0074071Y0022515D01*
X0073304Y0021747D01*
X0071002Y0021747D01*
X0072536Y0021747D02*
X0074071Y0020213D01*
X0074071Y0024049D02*
X0073304Y0024817D01*
X0071002Y0024817D01*
X0071002Y0020213D01*
X0057765Y0011049D02*
X0057765Y0009515D01*
X0056997Y0008747D01*
X0054695Y0008747D01*
X0054695Y0007213D02*
X0054695Y0011817D01*
X0056997Y0011817D01*
X0057765Y0011049D01*
X0056230Y0008747D02*
X0057765Y0007213D01*
X0053161Y0007980D02*
X0052393Y0007213D01*
X0050859Y0007213D01*
X0050091Y0007980D01*
X0053161Y0011049D01*
X0053161Y0007980D01*
X0053161Y0011049D02*
X0052393Y0011817D01*
X0050859Y0011817D01*
X0050091Y0011049D01*
X0050091Y0007980D01*
X0048557Y0011049D02*
X0045487Y0007980D01*
X0045487Y0007213D01*
X0043953Y0009515D02*
X0040883Y0009515D01*
X0043185Y0011817D01*
X0043185Y0007213D01*
X0045487Y0011817D02*
X0048557Y0011817D01*
X0048557Y0011049D01*
X0048557Y0020213D02*
X0045487Y0020213D01*
X0043953Y0020213D02*
X0042418Y0021747D01*
X0043185Y0021747D02*
X0040883Y0021747D01*
X0040883Y0020213D02*
X0040883Y0024817D01*
X0043185Y0024817D01*
X0043953Y0024049D01*
X0043953Y0022515D01*
X0043185Y0021747D01*
X0045487Y0023282D02*
X0047022Y0024817D01*
X0047022Y0020213D01*
X0050091Y0020213D02*
X0053161Y0020213D01*
X0051626Y0020213D02*
X0051626Y0024817D01*
X0050091Y0023282D01*
X0049285Y0134983D02*
X0048417Y0135850D01*
X0049285Y0134983D02*
X0051020Y0134983D01*
X0051887Y0135850D01*
X0051887Y0136717D01*
X0051020Y0137585D01*
X0049285Y0137585D01*
X0048417Y0138452D01*
X0048417Y0139320D01*
X0049285Y0140187D01*
X0051020Y0140187D01*
X0051887Y0139320D01*
X0053574Y0140187D02*
X0053574Y0134983D01*
X0053574Y0136717D02*
X0056176Y0136717D01*
X0057043Y0137585D01*
X0057043Y0139320D01*
X0056176Y0140187D01*
X0053574Y0140187D01*
X0053775Y0141843D02*
X0056844Y0141843D01*
X0058379Y0141843D02*
X0061448Y0141843D01*
X0062983Y0141843D02*
X0062983Y0146446D01*
X0065285Y0146446D01*
X0066052Y0145679D01*
X0066052Y0142610D01*
X0065285Y0141843D01*
X0062983Y0141843D01*
X0065621Y0140187D02*
X0063887Y0138452D01*
X0062200Y0137585D02*
X0058730Y0137585D01*
X0058379Y0141843D02*
X0058379Y0146446D01*
X0061448Y0146446D01*
X0059913Y0144144D02*
X0058379Y0144144D01*
X0058379Y0156843D02*
X0058379Y0161446D01*
X0058379Y0159144D02*
X0061448Y0159144D01*
X0062983Y0158377D02*
X0065285Y0158377D01*
X0066052Y0159144D01*
X0066052Y0160679D01*
X0065285Y0161446D01*
X0062983Y0161446D01*
X0062983Y0156843D01*
X0061448Y0156843D02*
X0061448Y0161446D01*
X0060751Y0164126D02*
X0059983Y0164126D01*
X0059983Y0164893D01*
X0060751Y0164893D01*
X0060751Y0164126D01*
X0058449Y0164126D02*
X0055380Y0164126D01*
X0056914Y0164126D02*
X0056914Y0168730D01*
X0055380Y0167195D01*
X0056077Y0161446D02*
X0054542Y0161446D01*
X0053775Y0160679D01*
X0053775Y0157610D01*
X0054542Y0156843D01*
X0056077Y0156843D01*
X0056844Y0157610D01*
X0056844Y0160679D02*
X0056077Y0161446D01*
X0052240Y0156075D02*
X0049171Y0156075D01*
X0047636Y0157610D02*
X0047636Y0160679D01*
X0046869Y0161446D01*
X0044567Y0161446D01*
X0044567Y0156843D01*
X0046869Y0156843D01*
X0047636Y0157610D01*
X0044120Y0165129D02*
X0041051Y0165129D01*
X0043353Y0167431D01*
X0043353Y0162827D01*
X0043032Y0161446D02*
X0039963Y0161446D01*
X0039963Y0156843D01*
X0043032Y0156843D01*
X0041498Y0159144D02*
X0039963Y0159144D01*
X0039517Y0162827D02*
X0037982Y0164361D01*
X0038749Y0164361D02*
X0036447Y0164361D01*
X0036447Y0162827D02*
X0036447Y0167431D01*
X0038749Y0167431D01*
X0039517Y0166663D01*
X0039517Y0165129D01*
X0038749Y0164361D01*
X0038428Y0156843D02*
X0035359Y0156843D01*
X0035359Y0161446D01*
X0034913Y0177827D02*
X0031843Y0177827D01*
X0033378Y0177827D02*
X0033378Y0182431D01*
X0031843Y0180896D01*
X0028287Y0179325D02*
X0028287Y0177023D01*
X0023683Y0177023D01*
X0023683Y0179325D01*
X0024450Y0180092D01*
X0025217Y0180092D01*
X0025985Y0179325D01*
X0025985Y0177023D01*
X0027519Y0175488D02*
X0024450Y0175488D01*
X0023683Y0174721D01*
X0023683Y0172419D01*
X0028287Y0172419D01*
X0028287Y0174721D01*
X0027519Y0175488D01*
X0028287Y0179325D02*
X0027519Y0180092D01*
X0026752Y0180092D01*
X0025985Y0179325D01*
X0024450Y0181627D02*
X0025985Y0183161D01*
X0028287Y0183161D01*
X0025985Y0183161D02*
X0024450Y0184696D01*
X0023683Y0184696D01*
X0023683Y0181627D02*
X0024450Y0181627D01*
X0023683Y0170884D02*
X0023683Y0167815D01*
X0023683Y0169350D02*
X0028287Y0169350D01*
X0027519Y0166280D02*
X0026752Y0166280D01*
X0025985Y0165513D01*
X0025985Y0163978D01*
X0025217Y0163211D01*
X0024450Y0163211D01*
X0023683Y0163978D01*
X0023683Y0165513D01*
X0024450Y0166280D01*
X0024450Y0157072D02*
X0023683Y0156305D01*
X0023683Y0154003D01*
X0028287Y0154003D01*
X0028287Y0156305D01*
X0027519Y0157072D01*
X0024450Y0157072D01*
X0023683Y0152468D02*
X0023683Y0149399D01*
X0028287Y0149399D01*
X0028287Y0152468D01*
X0028287Y0147865D02*
X0028287Y0144795D01*
X0023683Y0144795D01*
X0025985Y0149399D02*
X0025985Y0150934D01*
X0029054Y0158607D02*
X0029054Y0161676D01*
X0027519Y0163211D02*
X0028287Y0163978D01*
X0028287Y0165513D01*
X0027519Y0166280D01*
X0037215Y0177827D02*
X0036447Y0178594D01*
X0039517Y0181663D01*
X0039517Y0178594D01*
X0038749Y0177827D01*
X0037215Y0177827D01*
X0036447Y0178594D02*
X0036447Y0181663D01*
X0037215Y0182431D01*
X0038749Y0182431D01*
X0039517Y0181663D01*
X0041051Y0181663D02*
X0041818Y0182431D01*
X0043353Y0182431D01*
X0044120Y0181663D01*
X0044120Y0180896D01*
X0041051Y0177827D01*
X0044120Y0177827D01*
X0053775Y0146446D02*
X0053775Y0141843D01*
X0046731Y0140187D02*
X0043261Y0140187D01*
X0043261Y0134983D01*
X0046731Y0134983D01*
X0044996Y0137585D02*
X0043261Y0137585D01*
X0055380Y0179126D02*
X0055380Y0183730D01*
X0057681Y0183730D01*
X0058449Y0182963D01*
X0058449Y0181428D01*
X0057681Y0180661D01*
X0055380Y0180661D01*
X0056914Y0180661D02*
X0058449Y0179126D01*
X0059983Y0179126D02*
X0063053Y0182195D01*
X0063053Y0182963D01*
X0062285Y0183730D01*
X0060751Y0183730D01*
X0059983Y0182963D01*
X0059983Y0179126D02*
X0063053Y0179126D01*
X0065355Y0168730D02*
X0063820Y0167963D01*
X0062285Y0166428D01*
X0064587Y0166428D01*
X0065355Y0165661D01*
X0065355Y0164893D01*
X0064587Y0164126D01*
X0063053Y0164126D01*
X0062285Y0164893D01*
X0062285Y0166428D01*
X0064517Y0158377D02*
X0066052Y0156843D01*
X0067587Y0157610D02*
X0067587Y0160679D01*
X0068354Y0161446D01*
X0069889Y0161446D01*
X0070656Y0160679D01*
X0070656Y0159144D02*
X0069121Y0159144D01*
X0070656Y0159144D02*
X0070656Y0157610D01*
X0069889Y0156843D01*
X0068354Y0156843D01*
X0067587Y0157610D01*
X0067657Y0164126D02*
X0066889Y0164893D01*
X0066889Y0166428D01*
X0069191Y0166428D01*
X0069959Y0165661D01*
X0069959Y0164893D01*
X0069191Y0164126D01*
X0067657Y0164126D01*
X0066889Y0166428D02*
X0068424Y0167963D01*
X0069959Y0168730D01*
X0071493Y0168730D02*
X0071493Y0164126D01*
X0071493Y0165661D02*
X0073795Y0167195D01*
X0074553Y0167195D02*
X0076087Y0168730D01*
X0076087Y0164126D01*
X0074553Y0164126D02*
X0077622Y0164126D01*
X0079157Y0164893D02*
X0079157Y0167963D01*
X0079924Y0168730D01*
X0081459Y0168730D01*
X0082226Y0167963D01*
X0079157Y0164893D01*
X0079924Y0164126D01*
X0081459Y0164126D01*
X0082226Y0164893D01*
X0082226Y0167963D01*
X0083761Y0167963D02*
X0084528Y0168730D01*
X0086063Y0168730D01*
X0086830Y0167963D01*
X0086830Y0167195D01*
X0083761Y0164126D01*
X0086830Y0164126D01*
X0081459Y0179126D02*
X0082226Y0179893D01*
X0082226Y0180661D01*
X0081459Y0181428D01*
X0080691Y0181428D01*
X0081459Y0181428D02*
X0082226Y0182195D01*
X0082226Y0182963D01*
X0081459Y0183730D01*
X0079924Y0183730D01*
X0079157Y0182963D01*
X0077622Y0182963D02*
X0077622Y0181428D01*
X0076855Y0180661D01*
X0074553Y0180661D01*
X0076087Y0180661D02*
X0077622Y0179126D01*
X0079157Y0179893D02*
X0079924Y0179126D01*
X0081459Y0179126D01*
X0081152Y0184953D02*
X0080384Y0185720D01*
X0080384Y0189557D01*
X0081152Y0184953D02*
X0082686Y0184953D01*
X0083454Y0185720D01*
X0083454Y0189557D01*
X0084988Y0187255D02*
X0088057Y0187255D01*
X0087290Y0184953D02*
X0087290Y0189557D01*
X0084988Y0187255D01*
X0077622Y0182963D02*
X0076855Y0183730D01*
X0074553Y0183730D01*
X0074553Y0179126D01*
X0071493Y0165661D02*
X0073795Y0164126D01*
X0069121Y0146446D02*
X0067587Y0144912D01*
X0069121Y0146446D02*
X0069121Y0141843D01*
X0067587Y0141843D02*
X0070656Y0141843D01*
X0069910Y0140187D02*
X0069043Y0139320D01*
X0069910Y0140187D02*
X0071645Y0140187D01*
X0072513Y0139320D01*
X0072513Y0138452D01*
X0069043Y0134983D01*
X0072513Y0134983D01*
X0074199Y0134983D02*
X0074199Y0140187D01*
X0077669Y0140187D01*
X0075934Y0137585D02*
X0074199Y0137585D01*
X0067356Y0134983D02*
X0063887Y0134983D01*
X0065621Y0134983D02*
X0065621Y0140187D01*
X0064868Y0217886D02*
X0061799Y0217886D01*
X0060265Y0217886D02*
X0058730Y0219420D01*
X0059497Y0219420D02*
X0057195Y0219420D01*
X0057195Y0217886D02*
X0057195Y0222490D01*
X0059497Y0222490D01*
X0060265Y0221722D01*
X0060265Y0220188D01*
X0059497Y0219420D01*
X0061799Y0220955D02*
X0063334Y0222490D01*
X0063334Y0217886D01*
X0064868Y0237886D02*
X0063334Y0239420D01*
X0064101Y0239420D02*
X0061799Y0239420D01*
X0061799Y0237886D02*
X0061799Y0242490D01*
X0064101Y0242490D01*
X0064868Y0241722D01*
X0064868Y0240188D01*
X0064101Y0239420D01*
X0060265Y0240188D02*
X0057195Y0240188D01*
X0059497Y0242490D01*
X0059497Y0237886D01*
X0055661Y0237886D02*
X0054893Y0237886D01*
X0054893Y0238653D01*
X0055661Y0238653D01*
X0055661Y0237886D01*
X0053359Y0238653D02*
X0052591Y0237886D01*
X0051057Y0237886D01*
X0050289Y0238653D01*
X0053359Y0241722D01*
X0053359Y0238653D01*
X0053359Y0241722D02*
X0052591Y0242490D01*
X0051057Y0242490D01*
X0050289Y0241722D01*
X0050289Y0238653D01*
X0049309Y0242866D02*
X0049309Y0247470D01*
X0052379Y0247470D01*
X0054431Y0247964D02*
X0055198Y0247197D01*
X0058267Y0247197D01*
X0059035Y0247964D01*
X0059035Y0249499D01*
X0058267Y0250266D01*
X0059035Y0251801D02*
X0055965Y0254870D01*
X0055198Y0254870D01*
X0054431Y0254103D01*
X0054431Y0252568D01*
X0055198Y0251801D01*
X0055198Y0250266D02*
X0054431Y0249499D01*
X0054431Y0247964D01*
X0050844Y0245168D02*
X0049309Y0245168D01*
X0047775Y0245935D02*
X0047775Y0242866D01*
X0045473Y0242866D01*
X0044705Y0243633D01*
X0044705Y0245935D01*
X0043171Y0246703D02*
X0043171Y0243633D01*
X0042404Y0242866D01*
X0040869Y0242866D01*
X0040102Y0243633D01*
X0043171Y0246703D01*
X0042404Y0247470D01*
X0040869Y0247470D01*
X0040102Y0246703D01*
X0040102Y0243633D01*
X0038567Y0242866D02*
X0035498Y0242866D01*
X0037032Y0242866D02*
X0037032Y0247470D01*
X0035498Y0245935D01*
X0036265Y0257866D02*
X0037800Y0257866D01*
X0038567Y0258633D01*
X0040102Y0260168D02*
X0043171Y0260168D01*
X0042404Y0257866D02*
X0042404Y0262470D01*
X0040102Y0260168D01*
X0038567Y0261703D02*
X0037800Y0262470D01*
X0036265Y0262470D01*
X0035498Y0261703D01*
X0035498Y0258633D01*
X0036265Y0257866D01*
X0059035Y0254870D02*
X0059035Y0251801D01*
X0069431Y0252568D02*
X0069431Y0254103D01*
X0070198Y0254870D01*
X0073267Y0251801D01*
X0074035Y0252568D01*
X0074035Y0254103D01*
X0073267Y0254870D01*
X0070198Y0254870D01*
X0070965Y0256405D02*
X0073267Y0256405D01*
X0074035Y0257172D01*
X0074035Y0259474D01*
X0070965Y0259474D01*
X0071733Y0261009D02*
X0071733Y0262543D01*
X0074035Y0261009D02*
X0069431Y0261009D01*
X0069431Y0264078D01*
X0069431Y0252568D02*
X0070198Y0251801D01*
X0073267Y0251801D01*
X0074035Y0250266D02*
X0074035Y0247197D01*
X0074035Y0248731D02*
X0069431Y0248731D01*
X0070965Y0247197D01*
X0097738Y0211406D02*
X0102342Y0211406D01*
X0102342Y0209872D02*
X0102342Y0212941D01*
X0101574Y0208337D02*
X0102342Y0207570D01*
X0102342Y0206035D01*
X0101574Y0205268D01*
X0098505Y0205268D01*
X0097738Y0206035D01*
X0097738Y0207570D01*
X0098505Y0208337D01*
X0099272Y0209872D02*
X0097738Y0211406D01*
X0101631Y0191549D02*
X0103933Y0191549D01*
X0104701Y0190781D01*
X0104701Y0189247D01*
X0103933Y0188480D01*
X0101631Y0188480D01*
X0101631Y0186945D02*
X0101631Y0191549D01*
X0103166Y0188480D02*
X0104701Y0186945D01*
X0106235Y0187712D02*
X0107003Y0186945D01*
X0108537Y0186945D01*
X0109305Y0187712D01*
X0109305Y0190781D01*
X0108537Y0191549D01*
X0107003Y0191549D01*
X0106235Y0190781D01*
X0106235Y0190014D01*
X0107003Y0189247D01*
X0109305Y0189247D01*
X0108537Y0178549D02*
X0107003Y0178549D01*
X0106235Y0177781D01*
X0109305Y0177014D02*
X0106235Y0173945D01*
X0109305Y0173945D01*
X0110839Y0173945D02*
X0110839Y0178549D01*
X0109305Y0177781D02*
X0108537Y0178549D01*
X0109305Y0177781D02*
X0109305Y0177014D01*
X0110839Y0175480D02*
X0113909Y0178549D01*
X0111607Y0176247D02*
X0113909Y0173945D01*
X0104701Y0173945D02*
X0101631Y0173945D01*
X0101631Y0177014D02*
X0103166Y0178549D01*
X0103166Y0173945D01*
X0114272Y0205268D02*
X0112738Y0206802D01*
X0117342Y0206802D01*
X0117342Y0205268D02*
X0117342Y0208337D01*
X0116574Y0209872D02*
X0113505Y0212941D01*
X0116574Y0212941D01*
X0117342Y0212174D01*
X0117342Y0210639D01*
X0116574Y0209872D01*
X0113505Y0209872D01*
X0112738Y0210639D01*
X0112738Y0212174D01*
X0113505Y0212941D01*
X0114272Y0214476D02*
X0116574Y0214476D01*
X0117342Y0215243D01*
X0117342Y0217545D01*
X0114272Y0217545D01*
X0115040Y0219079D02*
X0115040Y0220614D01*
X0117342Y0219079D02*
X0112738Y0219079D01*
X0112738Y0222149D01*
X0112158Y0123242D02*
X0113692Y0123242D01*
X0114460Y0122474D01*
X0111391Y0119405D01*
X0112158Y0118638D01*
X0113692Y0118638D01*
X0114460Y0119405D01*
X0114460Y0122474D01*
X0112158Y0123242D02*
X0111391Y0122474D01*
X0111391Y0119405D01*
X0109856Y0118638D02*
X0106787Y0118638D01*
X0108321Y0118638D02*
X0108321Y0123242D01*
X0106787Y0121707D01*
X0105252Y0120940D02*
X0104485Y0120172D01*
X0102183Y0120172D01*
X0102183Y0118638D02*
X0102183Y0123242D01*
X0104485Y0123242D01*
X0105252Y0122474D01*
X0105252Y0120940D01*
X0103717Y0120172D02*
X0105252Y0118638D01*
X0104485Y0110242D02*
X0102950Y0110242D01*
X0102183Y0109474D01*
X0102183Y0106405D01*
X0105252Y0109474D01*
X0105252Y0106405D01*
X0104485Y0105638D01*
X0102950Y0105638D01*
X0102183Y0106405D01*
X0101868Y0103557D02*
X0104170Y0103557D01*
X0104937Y0102789D01*
X0104937Y0101255D01*
X0104170Y0100487D01*
X0101868Y0100487D01*
X0101868Y0098953D02*
X0101868Y0103557D01*
X0103402Y0100487D02*
X0104937Y0098953D01*
X0106472Y0099720D02*
X0107239Y0098953D01*
X0108774Y0098953D01*
X0109541Y0099720D01*
X0109541Y0101255D01*
X0108774Y0102022D01*
X0108006Y0102022D01*
X0106472Y0101255D01*
X0106472Y0103557D01*
X0109541Y0103557D01*
X0109856Y0105638D02*
X0108321Y0107172D01*
X0109089Y0107172D02*
X0106787Y0107172D01*
X0106787Y0105638D02*
X0106787Y0110242D01*
X0109089Y0110242D01*
X0109856Y0109474D01*
X0109856Y0107940D01*
X0109089Y0107172D01*
X0105252Y0109474D02*
X0104485Y0110242D01*
X0103402Y0090557D02*
X0101868Y0089022D01*
X0103402Y0090557D02*
X0103402Y0085953D01*
X0101868Y0085953D02*
X0104937Y0085953D01*
X0106472Y0085953D02*
X0109541Y0089022D01*
X0109541Y0089789D01*
X0108774Y0090557D01*
X0107239Y0090557D01*
X0106472Y0089789D01*
X0106472Y0085953D02*
X0109541Y0085953D01*
X0111076Y0085953D02*
X0111076Y0090557D01*
X0111843Y0088255D02*
X0114145Y0085953D01*
X0111076Y0087487D02*
X0114145Y0090557D01*
X0109226Y0083872D02*
X0107691Y0083104D01*
X0106157Y0081570D01*
X0108459Y0081570D01*
X0109226Y0080802D01*
X0109226Y0080035D01*
X0108459Y0079268D01*
X0106924Y0079268D01*
X0106157Y0080035D01*
X0106157Y0081570D01*
X0104622Y0081570D02*
X0103855Y0080802D01*
X0101553Y0080802D01*
X0101553Y0079268D02*
X0101553Y0083872D01*
X0103855Y0083872D01*
X0104622Y0083104D01*
X0104622Y0081570D01*
X0103087Y0080802D02*
X0104622Y0079268D01*
X0103087Y0070872D02*
X0103087Y0066268D01*
X0101553Y0066268D02*
X0104622Y0066268D01*
X0106157Y0066268D02*
X0109226Y0069337D01*
X0109226Y0070104D01*
X0108459Y0070872D01*
X0106924Y0070872D01*
X0106157Y0070104D01*
X0106157Y0066268D02*
X0109226Y0066268D01*
X0110761Y0066268D02*
X0110761Y0070872D01*
X0111528Y0068570D02*
X0113830Y0066268D01*
X0110761Y0067802D02*
X0113830Y0070872D01*
X0108911Y0064187D02*
X0108911Y0063419D01*
X0105842Y0060350D01*
X0105842Y0059583D01*
X0104307Y0059583D02*
X0102772Y0061117D01*
X0103540Y0061117D02*
X0101238Y0061117D01*
X0101238Y0059583D02*
X0101238Y0064187D01*
X0103540Y0064187D01*
X0104307Y0063419D01*
X0104307Y0061885D01*
X0103540Y0061117D01*
X0105842Y0064187D02*
X0108911Y0064187D01*
X0103087Y0070872D02*
X0101553Y0069337D01*
X0102772Y0051187D02*
X0101238Y0049652D01*
X0102772Y0051187D02*
X0102772Y0046583D01*
X0101238Y0046583D02*
X0104307Y0046583D01*
X0105842Y0046583D02*
X0108911Y0049652D01*
X0108911Y0050419D01*
X0108144Y0051187D01*
X0106609Y0051187D01*
X0105842Y0050419D01*
X0105842Y0046583D02*
X0108911Y0046583D01*
X0107829Y0044502D02*
X0108596Y0043734D01*
X0108596Y0042967D01*
X0107829Y0042200D01*
X0106294Y0042200D01*
X0105527Y0042967D01*
X0105527Y0043734D01*
X0106294Y0044502D01*
X0107829Y0044502D01*
X0107829Y0042200D02*
X0108596Y0041432D01*
X0108596Y0040665D01*
X0107829Y0039898D01*
X0106294Y0039898D01*
X0105527Y0040665D01*
X0105527Y0041432D01*
X0106294Y0042200D01*
X0103992Y0042200D02*
X0103225Y0041432D01*
X0100923Y0041432D01*
X0100923Y0039898D02*
X0100923Y0044502D01*
X0103225Y0044502D01*
X0103992Y0043734D01*
X0103992Y0042200D01*
X0102457Y0041432D02*
X0103992Y0039898D01*
X0102457Y0031502D02*
X0100923Y0029967D01*
X0102457Y0031502D02*
X0102457Y0026898D01*
X0100923Y0026898D02*
X0103992Y0026898D01*
X0105527Y0026898D02*
X0108596Y0029967D01*
X0108596Y0030734D01*
X0107829Y0031502D01*
X0106294Y0031502D01*
X0105527Y0030734D01*
X0105527Y0026898D02*
X0108596Y0026898D01*
X0110131Y0026898D02*
X0110131Y0031502D01*
X0110898Y0029200D02*
X0113200Y0026898D01*
X0110131Y0028432D02*
X0113200Y0031502D01*
X0113515Y0046583D02*
X0111213Y0048885D01*
X0110446Y0048117D02*
X0113515Y0051187D01*
X0110446Y0051187D02*
X0110446Y0046583D01*
X0013287Y0144795D02*
X0013287Y0147865D01*
X0013287Y0149399D02*
X0013287Y0152468D01*
X0013287Y0154003D02*
X0013287Y0156305D01*
X0012519Y0157072D01*
X0009450Y0157072D01*
X0008683Y0156305D01*
X0008683Y0154003D01*
X0013287Y0154003D01*
X0013287Y0149399D02*
X0008683Y0149399D01*
X0008683Y0152468D01*
X0010985Y0150934D02*
X0010985Y0149399D01*
X0008683Y0144795D02*
X0013287Y0144795D01*
X0013287Y0158607D02*
X0010217Y0161676D01*
X0009450Y0161676D01*
X0008683Y0160909D01*
X0008683Y0159374D01*
X0009450Y0158607D01*
X0013287Y0158607D02*
X0013287Y0161676D01*
X0024966Y0380307D02*
X0024198Y0381074D01*
X0024198Y0384911D01*
X0024966Y0380307D02*
X0026500Y0380307D01*
X0027268Y0381074D01*
X0027268Y0384911D01*
X0028802Y0384144D02*
X0029570Y0384911D01*
X0031104Y0384911D01*
X0031872Y0384144D01*
X0031872Y0383376D01*
X0028802Y0380307D01*
X0031872Y0380307D01*
D11*
X0093572Y0139212D02*
X0093572Y0135509D01*
X0092338Y0135509D02*
X0094807Y0135509D01*
X0096021Y0135509D02*
X0096638Y0135509D01*
X0096638Y0136126D01*
X0096021Y0136126D01*
X0096021Y0135509D01*
X0097863Y0136126D02*
X0100332Y0138595D01*
X0100332Y0136126D01*
X0099714Y0135509D01*
X0098480Y0135509D01*
X0097863Y0136126D01*
X0097863Y0138595D01*
X0098480Y0139212D01*
X0099714Y0139212D01*
X0100332Y0138595D01*
X0101546Y0137978D02*
X0101546Y0136126D01*
X0102163Y0135509D01*
X0104015Y0135509D01*
X0104015Y0137978D01*
X0105229Y0137361D02*
X0106463Y0137361D01*
X0105229Y0139212D02*
X0107698Y0139212D01*
X0105229Y0139212D02*
X0105229Y0135509D01*
X0105846Y0128287D02*
X0105229Y0127670D01*
X0105846Y0128287D02*
X0107081Y0128287D01*
X0107698Y0127670D01*
X0107698Y0127053D01*
X0107081Y0126435D01*
X0107698Y0125818D01*
X0107698Y0125201D01*
X0107081Y0124584D01*
X0105846Y0124584D01*
X0105229Y0125201D01*
X0104015Y0125201D02*
X0103397Y0124584D01*
X0102163Y0124584D01*
X0101546Y0125201D01*
X0101546Y0127670D01*
X0102163Y0128287D01*
X0103397Y0128287D01*
X0104015Y0127670D01*
X0106463Y0126435D02*
X0107081Y0126435D01*
X0093572Y0139212D02*
X0092338Y0137978D01*
D12*
X0097485Y0153322D02*
X0100988Y0153322D01*
X0101689Y0154023D01*
X0101689Y0155424D01*
X0100988Y0156124D01*
X0097485Y0156124D01*
X0098186Y0157926D02*
X0097485Y0158627D01*
X0097485Y0160028D01*
X0098186Y0160728D01*
X0098887Y0160728D01*
X0099587Y0160028D01*
X0100288Y0160728D01*
X0100988Y0160728D01*
X0101689Y0160028D01*
X0101689Y0158627D01*
X0100988Y0157926D01*
X0099587Y0159327D02*
X0099587Y0160028D01*
X0037620Y0201524D02*
X0037620Y0205068D01*
X0037620Y0222391D02*
X0037620Y0225934D01*
X0027778Y0228690D02*
X0019510Y0228690D01*
X0019510Y0198769D02*
X0027778Y0198769D01*
D13*
X0019269Y0213779D02*
X0019519Y0214029D01*
X0019519Y0214530D01*
X0019018Y0214530D01*
X0018518Y0215030D02*
X0018518Y0214029D01*
X0018768Y0213779D01*
X0019269Y0213779D01*
X0018045Y0213779D02*
X0018045Y0215280D01*
X0018518Y0215030D02*
X0018768Y0215280D01*
X0019269Y0215280D01*
X0019519Y0215030D01*
X0018045Y0214530D02*
X0017045Y0214530D01*
X0016572Y0215030D02*
X0016322Y0215280D01*
X0015822Y0215280D01*
X0015571Y0215030D01*
X0015571Y0214029D01*
X0015822Y0213779D01*
X0016322Y0213779D01*
X0016572Y0214029D01*
X0017045Y0213779D02*
X0017045Y0215280D01*
X0015099Y0213529D02*
X0014098Y0213529D01*
X0013626Y0214029D02*
X0013375Y0213779D01*
X0012625Y0213779D01*
X0012625Y0215280D01*
X0013375Y0215280D01*
X0013626Y0215030D01*
X0013626Y0214780D01*
X0013375Y0214530D01*
X0012625Y0214530D01*
X0012152Y0214280D02*
X0012152Y0214029D01*
X0011902Y0213779D01*
X0011402Y0213779D01*
X0011152Y0214029D01*
X0010679Y0214029D02*
X0010679Y0215280D01*
X0011152Y0215030D02*
X0011152Y0214780D01*
X0011402Y0214530D01*
X0011902Y0214530D01*
X0012152Y0214280D01*
X0012152Y0215030D02*
X0011902Y0215280D01*
X0011402Y0215280D01*
X0011152Y0215030D01*
X0010679Y0214029D02*
X0010429Y0213779D01*
X0009929Y0213779D01*
X0009678Y0214029D01*
X0009678Y0215280D01*
X0009929Y0218779D02*
X0009678Y0219029D01*
X0009929Y0218779D02*
X0010179Y0218779D01*
X0010429Y0219029D01*
X0010429Y0220280D01*
X0010179Y0220280D02*
X0010679Y0220280D01*
X0011152Y0219780D02*
X0011652Y0220280D01*
X0011652Y0218779D01*
X0011152Y0218779D02*
X0012152Y0218779D01*
X0013375Y0214530D02*
X0013626Y0214280D01*
X0013626Y0214029D01*
D14*
X0067345Y0215595D02*
X0067345Y0223595D01*
X0068345Y0224595D01*
X0076345Y0224595D01*
X0077345Y0223595D01*
X0078345Y0224595D01*
X0086345Y0224595D01*
X0087345Y0223595D01*
X0087345Y0215595D01*
X0086345Y0214595D01*
X0078345Y0214595D01*
X0077345Y0215595D01*
X0076345Y0214595D01*
X0068345Y0214595D01*
X0067345Y0215595D01*
X0080038Y0244162D02*
X0079038Y0245162D01*
X0079038Y0253162D01*
X0080038Y0254162D01*
X0088038Y0254162D01*
X0089038Y0253162D01*
X0090038Y0254162D01*
X0098038Y0254162D01*
X0099038Y0253162D01*
X0100038Y0254162D01*
X0108038Y0254162D01*
X0109038Y0253162D01*
X0110038Y0254162D01*
X0118038Y0254162D01*
X0119038Y0253162D01*
X0119038Y0245162D01*
X0118038Y0244162D01*
X0110038Y0244162D01*
X0109038Y0245162D01*
X0108038Y0244162D01*
X0100038Y0244162D01*
X0099038Y0245162D01*
X0098038Y0244162D01*
X0090038Y0244162D01*
X0089038Y0245162D01*
X0088038Y0244162D01*
X0080038Y0244162D01*
X0089672Y0267430D02*
X0088172Y0268930D01*
X0088172Y0275930D01*
X0089672Y0277430D01*
X0088172Y0278930D01*
X0088172Y0285930D01*
X0089672Y0287430D01*
X0088172Y0288930D01*
X0088172Y0295930D01*
X0089672Y0297430D01*
X0088172Y0298930D01*
X0088172Y0305930D01*
X0089672Y0307430D01*
X0088172Y0308930D01*
X0088172Y0315930D01*
X0089672Y0317430D01*
X0088172Y0318930D01*
X0088172Y0325930D01*
X0089672Y0327430D01*
X0088172Y0328930D01*
X0088172Y0335930D01*
X0089672Y0337430D01*
X0106672Y0337430D01*
X0108172Y0335930D01*
X0108172Y0328930D01*
X0106672Y0327430D01*
X0108172Y0325930D01*
X0108172Y0318930D01*
X0106672Y0317430D01*
X0108172Y0315930D01*
X0108172Y0308930D01*
X0106672Y0307430D01*
X0108172Y0305930D01*
X0108172Y0298930D01*
X0106672Y0297430D01*
X0108172Y0295930D01*
X0108172Y0288930D01*
X0106672Y0287430D01*
X0108172Y0285930D01*
X0108172Y0278930D01*
X0106672Y0277430D01*
X0108172Y0275930D01*
X0108172Y0268930D01*
X0106672Y0267430D01*
X0089672Y0267430D01*
D15*
X0080731Y0037627D02*
X0017739Y0037627D01*
X0017739Y0066367D01*
X0017739Y0132115D02*
X0024431Y0132115D01*
X0066124Y0191091D02*
X0082660Y0191091D01*
X0082660Y0208414D01*
X0066124Y0208414D01*
X0066124Y0191091D01*
X0068346Y0226345D02*
X0069096Y0226345D01*
X0069847Y0227096D01*
X0069847Y0230849D01*
X0070597Y0230849D02*
X0069096Y0230849D01*
X0067595Y0227096D02*
X0068346Y0226345D01*
X0072199Y0226345D02*
X0072199Y0230849D01*
X0074451Y0230849D01*
X0075201Y0230098D01*
X0075201Y0228597D01*
X0074451Y0227847D01*
X0072199Y0227847D01*
X0076803Y0227096D02*
X0077553Y0226345D01*
X0079055Y0226345D01*
X0079805Y0227096D01*
X0079805Y0227847D01*
X0079055Y0228597D01*
X0078304Y0228597D01*
X0079055Y0228597D02*
X0079805Y0229348D01*
X0079805Y0230098D01*
X0079055Y0230849D01*
X0077553Y0230849D01*
X0076803Y0230098D01*
X0079288Y0233412D02*
X0079288Y0237916D01*
X0081540Y0237916D01*
X0082290Y0237165D01*
X0082290Y0235664D01*
X0081540Y0234913D01*
X0079288Y0234913D01*
X0083892Y0234163D02*
X0084642Y0233412D01*
X0086144Y0233412D01*
X0086894Y0234163D01*
X0086894Y0237165D01*
X0086144Y0237916D01*
X0084642Y0237916D01*
X0083892Y0237165D01*
X0083892Y0234163D01*
X0084288Y0238912D02*
X0086556Y0238912D01*
X0085422Y0238912D02*
X0085422Y0242315D01*
X0084288Y0241181D01*
X0088496Y0237916D02*
X0088496Y0233412D01*
X0088496Y0234913D02*
X0090748Y0234913D01*
X0091498Y0235664D01*
X0091498Y0237165D01*
X0090748Y0237916D01*
X0088496Y0237916D01*
X0089997Y0234913D02*
X0091498Y0233412D01*
X0093100Y0237916D02*
X0096102Y0237916D01*
X0096556Y0238912D02*
X0094288Y0238912D01*
X0096556Y0241181D01*
X0096556Y0241748D01*
X0095989Y0242315D01*
X0094855Y0242315D01*
X0094288Y0241748D01*
X0094601Y0237916D02*
X0094601Y0233412D01*
X0097703Y0232662D02*
X0100706Y0232662D01*
X0102307Y0233412D02*
X0103809Y0233412D01*
X0103058Y0233412D02*
X0103058Y0237916D01*
X0102307Y0237916D02*
X0103809Y0237916D01*
X0104855Y0238912D02*
X0104288Y0239479D01*
X0104855Y0238912D02*
X0105989Y0238912D01*
X0106556Y0239479D01*
X0106556Y0240047D01*
X0105989Y0240614D01*
X0105422Y0240614D01*
X0105989Y0240614D02*
X0106556Y0241181D01*
X0106556Y0241748D01*
X0105989Y0242315D01*
X0104855Y0242315D01*
X0104288Y0241748D01*
X0106127Y0237916D02*
X0105377Y0237165D01*
X0105377Y0234163D01*
X0106127Y0233412D01*
X0107629Y0233412D01*
X0108379Y0234163D01*
X0108379Y0237165D01*
X0107629Y0237916D01*
X0106127Y0237916D01*
X0109981Y0237165D02*
X0110731Y0237916D01*
X0112233Y0237916D01*
X0112983Y0237165D01*
X0112983Y0236415D01*
X0109981Y0233412D01*
X0112983Y0233412D01*
X0115989Y0238912D02*
X0115989Y0242315D01*
X0114288Y0240614D01*
X0116556Y0240614D01*
X0115918Y0267680D02*
X0115918Y0269932D01*
X0116668Y0270682D01*
X0118170Y0270682D01*
X0118920Y0269932D01*
X0118920Y0267680D01*
X0119671Y0272284D02*
X0116668Y0272284D01*
X0115918Y0273034D01*
X0115918Y0274536D01*
X0116668Y0275286D01*
X0119671Y0275286D01*
X0120422Y0274536D01*
X0120422Y0273034D01*
X0119671Y0272284D01*
X0118920Y0276888D02*
X0118920Y0279140D01*
X0118170Y0279890D01*
X0116668Y0279890D01*
X0115918Y0279140D01*
X0115918Y0276888D01*
X0120422Y0276888D01*
X0118920Y0278389D02*
X0120422Y0279890D01*
X0120422Y0282993D02*
X0115918Y0282993D01*
X0115918Y0281492D02*
X0115918Y0284494D01*
X0114422Y0283682D02*
X0114422Y0280680D01*
X0111419Y0283682D01*
X0110668Y0283682D01*
X0109918Y0282932D01*
X0109918Y0281431D01*
X0110668Y0280680D01*
X0109918Y0272181D02*
X0114422Y0272181D01*
X0114422Y0270680D02*
X0114422Y0273682D01*
X0115918Y0267680D02*
X0120422Y0267680D01*
X0121172Y0286096D02*
X0121172Y0289098D01*
X0120422Y0290700D02*
X0120422Y0292201D01*
X0120422Y0291450D02*
X0115918Y0291450D01*
X0115918Y0290700D02*
X0115918Y0292201D01*
X0114422Y0292932D02*
X0114422Y0291431D01*
X0113671Y0290680D01*
X0112170Y0292181D02*
X0112170Y0292932D01*
X0112920Y0293682D01*
X0113671Y0293682D01*
X0114422Y0292932D01*
X0115918Y0294519D02*
X0116668Y0293769D01*
X0119671Y0293769D01*
X0120422Y0294519D01*
X0120422Y0296021D01*
X0119671Y0296771D01*
X0116668Y0296771D01*
X0115918Y0296021D01*
X0115918Y0294519D01*
X0117419Y0298373D02*
X0115918Y0299874D01*
X0120422Y0299874D01*
X0120422Y0298373D02*
X0120422Y0301375D01*
X0114422Y0302932D02*
X0109918Y0302932D01*
X0112170Y0300680D01*
X0112170Y0303682D01*
X0112170Y0310680D02*
X0109918Y0310680D01*
X0109918Y0313682D01*
X0111419Y0312932D02*
X0112170Y0313682D01*
X0113671Y0313682D01*
X0114422Y0312932D01*
X0114422Y0311431D01*
X0113671Y0310680D01*
X0112170Y0310680D02*
X0111419Y0312181D01*
X0111419Y0312932D01*
X0112170Y0320680D02*
X0112170Y0322932D01*
X0112920Y0323682D01*
X0113671Y0323682D01*
X0114422Y0322932D01*
X0114422Y0321431D01*
X0113671Y0320680D01*
X0112170Y0320680D01*
X0110668Y0322181D01*
X0109918Y0323682D01*
X0109918Y0330680D02*
X0109918Y0333682D01*
X0110668Y0333682D01*
X0113671Y0330680D01*
X0114422Y0330680D01*
X0111419Y0293682D02*
X0112170Y0292932D01*
X0111419Y0293682D02*
X0110668Y0293682D01*
X0109918Y0292932D01*
X0109918Y0291431D01*
X0110668Y0290680D01*
X0109918Y0272181D02*
X0111419Y0270680D01*
X0091498Y0259665D02*
X0090748Y0260416D01*
X0089246Y0260416D01*
X0088496Y0259665D01*
X0086894Y0259665D02*
X0086894Y0258164D01*
X0086144Y0257413D01*
X0083892Y0257413D01*
X0083892Y0255912D02*
X0083892Y0260416D01*
X0086144Y0260416D01*
X0086894Y0259665D01*
X0088496Y0255912D02*
X0091498Y0258915D01*
X0091498Y0259665D01*
X0091498Y0255912D02*
X0088496Y0255912D01*
X0086171Y0267680D02*
X0086922Y0268431D01*
X0086922Y0269181D01*
X0086171Y0269932D01*
X0082418Y0269932D01*
X0082418Y0270682D02*
X0082418Y0269181D01*
X0082418Y0272284D02*
X0082418Y0274536D01*
X0083168Y0275286D01*
X0084670Y0275286D01*
X0085420Y0274536D01*
X0085420Y0272284D01*
X0083919Y0276888D02*
X0082418Y0278389D01*
X0086922Y0278389D01*
X0086922Y0276888D02*
X0086922Y0279890D01*
X0086922Y0272284D02*
X0082418Y0272284D01*
X0082290Y0260416D02*
X0080789Y0260416D01*
X0081540Y0260416D02*
X0081540Y0256663D01*
X0080789Y0255912D01*
X0080038Y0255912D01*
X0079288Y0256663D01*
X0102896Y0161209D02*
X0102896Y0154910D01*
X0114707Y0154910D01*
X0114707Y0161209D01*
X0102896Y0161209D01*
X0080731Y0132115D02*
X0071676Y0132115D01*
X0080731Y0066367D02*
X0080731Y0037627D01*
X0071243Y0354517D02*
X0071243Y0387981D01*
X0020061Y0387981D01*
X0020061Y0354517D01*
D16*
X0066597Y0151643D03*
X0018487Y0149989D03*
D17*
X0040763Y0016019D03*
X0046563Y0016019D03*
X0070881Y0016019D03*
X0076681Y0016019D03*
X0100802Y0035704D03*
X0106602Y0035704D03*
X0106917Y0055389D03*
X0101117Y0055389D03*
X0101432Y0075074D03*
X0107232Y0075074D03*
X0107547Y0094759D03*
X0101747Y0094759D03*
X0102062Y0114444D03*
X0107862Y0114444D03*
X0107311Y0182751D03*
X0101511Y0182751D03*
D18*
X0068132Y0062430D02*
X0042542Y0062430D01*
X0042542Y0054556D02*
X0042542Y0040776D01*
X0026794Y0040776D01*
X0042542Y0054556D02*
X0046872Y0054556D01*
X0046872Y0040776D01*
X0051203Y0040776D01*
X0051203Y0054950D01*
X0055928Y0054950D01*
X0055928Y0040776D01*
X0060652Y0040776D01*
X0060652Y0054950D01*
X0064589Y0054950D01*
X0064589Y0040383D01*
X0068132Y0040383D01*
X0068132Y0059674D01*
X0068132Y0060068D02*
X0068132Y0062430D01*
D19*
X0080691Y0193060D03*
M02*
