%
M48
M72
T01C0.02400
T02C0.03543
T03C0.03600
%
T01
X27077Y91500
X25927Y103000
X25927Y108750
X32827Y113350
X37427Y103000
X51227Y77700
X59277Y81150
X63877Y88050
X63877Y93800
X69627Y113350
X71927Y117950
X71927Y124850
X73077Y82300
X75377Y57000
X69627Y57000
X63877Y62750
X52377Y124850
X61577Y167400
X58127Y193850
X61577Y212250
X55827Y218000
X58127Y238700
X44327Y224900
X36277Y239850
X25927Y216850
X20177Y201900
X20177Y175450
X20177Y169700
X20177Y136350
X15577Y273200
X40877Y344500
X45477Y350250
X63877Y298500
X54677Y283550
X43177Y283550
X71927Y180050
X78827Y209950
X89177Y161650
X98377Y190400
X101827Y203050
X108727Y230650
X113327Y214550
X105277Y265150
X78827Y283550
X76527Y272050
X99527Y153600
X94927Y130600
X96077Y111050
X97227Y89200
X100677Y81150
X108727Y88050
X108727Y68500
X117927Y66200
X90327Y88050
T02
X24628Y205068
X24628Y222391
T03
X72345Y219595
X82345Y219595
X84038Y249162
X94038Y249162
X93172Y272430
X93172Y282430
X93172Y292430
X93172Y302430
X93172Y312430
X93172Y322430
X93172Y332430
X103172Y332430
X103172Y322430
X103172Y312430
X103172Y302430
X103172Y292430
X103172Y282430
X103172Y272430
X104038Y249162
X114038Y249162
M30
